<?xml version="1.0" encoding="UTF-8" standalone="no"?>
<svg
   xmlns:dc="http://purl.org/dc/elements/1.1/"
   xmlns:cc="http://creativecommons.org/ns#"
   xmlns:rdf="http://www.w3.org/1999/02/22-rdf-syntax-ns#"
   xmlns:svg="http://www.w3.org/2000/svg"
   xmlns="http://www.w3.org/2000/svg"
   id="svg2215"
   version="1.1"
   viewBox="0 0 58.964291 58.964291"
   height="58.964291mm"
   width="58.964291mm">
  <defs
     id="defs2209" />
  <metadata
     id="metadata2212">
    <rdf:RDF>
      <cc:Work
         rdf:about="">
        <dc:format>image/svg+xml</dc:format>
        <dc:type
           rdf:resource="http://purl.org/dc/dcmitype/StillImage" />
        <dc:title></dc:title>
      </cc:Work>
    </rdf:RDF>
  </metadata>
  <g
     transform="translate(-64.7886,-199.40423)"
     id="layer1">
    <g
       transform="translate(-62.2114,177.57091)"
       id="g1105">
      <path
         style="fill:none;stroke:none;stroke-width:0.26458332px;stroke-linecap:butt;stroke-linejoin:miter;stroke-opacity:1"
         d="M 185.96429,51.315468 A 29.482142,29.482142 0 0 1 156.48214,80.797608 29.482142,29.482142 0 0 1 127,51.315468 a 29.482142,29.482142 0 0 1 29.48214,-29.48215 29.482142,29.482142 0 0 1 29.48215,29.48215 z"
         id="path819-3-6-2-7" />
      <path
         style="opacity:1;fill:#ff3b3be0;fill-opacity:1;stroke:none;stroke-width:0.57142854;stroke-miterlimit:4;stroke-dasharray:none;stroke-opacity:1"
         d="m 144.23733,43.860198 c -6.54844,-3.79099 -12.11975,-7.03076 -12.38069,-7.19949 -1.00011,-0.64669 4.19528,-6.69009 8.00424,-9.31071 3.93844,-2.70972 8.92889,-4.49513 14.29832,-5.11544 l 2.17337,-0.25108 v 14.3903 c 0,7.91466 -0.0425,14.38778 -0.0945,14.38471 -0.052,-0.003 -5.45231,-3.1073 -12.00075,-6.89829 z"
         id="path923-7-5" />
      <path
         style="opacity:1;fill:#ff3b3be0;fill-opacity:1;stroke:none;stroke-width:0.57142854;stroke-miterlimit:4;stroke-dasharray:none;stroke-opacity:1"
         d="m 129.95519,63.254878 c -1.68548,-3.79933 -2.2323,-6.20578 -2.43034,-10.69543 -0.13651,-3.09497 -0.0265,-5.12285 0.38208,-7.04183 0.63992,-3.00563 2.81852,-8.55131 3.29128,-8.37803 1.35603,0.49701 24.45208,14.15192 24.25058,14.33749 -0.3941,0.36294 -23.22638,13.47972 -23.91969,13.7415 -0.4541,0.17145 -0.84067,-0.31086 -1.57391,-1.9637 z"
         id="path952-92" />
      <path
         style="opacity:1;fill:#ff3b3be0;fill-opacity:1;stroke:none;stroke-width:2.15972996;stroke-miterlimit:4;stroke-dasharray:none;stroke-opacity:1"
         d="m 576.53576,303.34343 c -15.54762,-2.15015 -33.48705,-9.22068 -47.44613,-18.70011 -12.3319,-8.37443 -34.51881,-32.86779 -31.72269,-35.02043 2.19823,-1.69235 91.01451,-52.40154 91.78039,-52.40154 0.52793,0 0.95986,24.10714 0.95986,53.57143 v 53.57143 l -4.64286,-0.21405 c -2.55357,-0.11773 -6.57142,-0.48075 -8.92857,-0.80673 z"
         id="path1050"
         transform="scale(0.26458333)" />
      <path
         style="opacity:1;fill:#ff3b3be0;fill-opacity:1;stroke:none;stroke-width:2.15972996;stroke-miterlimit:4;stroke-dasharray:none;stroke-opacity:1"
         d="m 592.96433,250.79278 c 0,-29.46429 0.40248,-53.57143 0.8944,-53.57143 1.30004,0 88.04674,50.08274 90.2402,52.0997 1.48908,1.36926 0.63476,3.34587 -4.39016,10.15734 -12.27143,16.63437 -31.84496,31.33311 -50.32961,37.79504 -9.12052,3.18838 -27.26499,7.09078 -32.96907,7.09078 h -3.44576 z"
         id="path1052"
         transform="scale(0.26458333)" />
    </g>
  </g>
</svg>
