<?xml version="1.0" encoding="UTF-8" standalone="no"?>
<svg
   xmlns:dc="http://purl.org/dc/elements/1.1/"
   xmlns:cc="http://creativecommons.org/ns#"
   xmlns:rdf="http://www.w3.org/1999/02/22-rdf-syntax-ns#"
   xmlns:svg="http://www.w3.org/2000/svg"
   xmlns="http://www.w3.org/2000/svg"
   id="svg2766"
   version="1.1"
   viewBox="0 0 58.964291 58.964291"
   height="58.964291mm"
   width="58.964291mm">
  <defs
     id="defs2760" />
  <metadata
     id="metadata2763">
    <rdf:RDF>
      <cc:Work
         rdf:about="">
        <dc:format>image/svg+xml</dc:format>
        <dc:type
           rdf:resource="http://purl.org/dc/dcmitype/StillImage" />
        <dc:title></dc:title>
      </cc:Work>
    </rdf:RDF>
  </metadata>
  <g
     transform="translate(-79.529672,-161.22863)"
     id="layer1">
    <g
       transform="translate(-30.461398,53.972698)"
       id="g1098">
      <path
         style="fill:none;stroke:none;stroke-width:0.26458332px;stroke-linecap:butt;stroke-linejoin:miter;stroke-opacity:1"
         d="m 168.95536,136.73809 a 29.482142,29.482142 0 0 1 -29.48215,29.48213 29.482142,29.482142 0 0 1 -29.48214,-29.48213 29.482142,29.482142 0 0 1 29.48214,-29.48216 29.482142,29.482142 0 0 1 29.48215,29.48216 z"
         id="path819-3-6-2-3" />
      <path
         style="opacity:1;fill:#ff3b3be0;fill-opacity:1;stroke:none;stroke-width:0.57142854;stroke-miterlimit:4;stroke-dasharray:none;stroke-opacity:1"
         d="m 127.22839,129.28281 c -6.54843,-3.79099 -12.11974,-7.03076 -12.38069,-7.19949 -1.0001,-0.64668 4.19529,-6.69009 8.00425,-9.31071 3.93844,-2.70972 8.92889,-4.49513 14.29832,-5.11544 l 2.17336,-0.25108 v 14.3903 c 0,7.91467 -0.0425,14.38778 -0.0945,14.38472 -0.052,-0.003 -5.4523,-3.10731 -12.00074,-6.8983 z"
         id="path923-7-6" />
      <path
         style="opacity:1;fill:#ff3b3be0;fill-opacity:1;stroke:none;stroke-width:0.57142854;stroke-miterlimit:4;stroke-dasharray:none;stroke-opacity:1"
         d="m 112.94626,148.6775 c -1.68548,-3.79933 -2.2323,-6.20579 -2.43034,-10.69543 -0.13651,-3.09497 -0.0265,-5.12285 0.38208,-7.04183 0.63992,-3.00563 2.81852,-8.55131 3.29128,-8.37803 1.35603,0.49701 24.45208,14.15192 24.25058,14.33749 -0.3941,0.36293 -23.22638,13.47972 -23.91969,13.74149 -0.4541,0.17145 -0.84067,-0.31085 -1.57391,-1.96369 z"
         id="path952-1" />
      <path
         style="opacity:1;fill:#ff3b3be0;fill-opacity:1;stroke:none;stroke-width:2.15972996;stroke-miterlimit:4;stroke-dasharray:none;stroke-opacity:1"
         d="m 512.25005,626.20057 c -15.54763,-2.15015 -33.48705,-9.22068 -47.44614,-18.70011 -12.33189,-8.37443 -34.5188,-32.86779 -31.72268,-35.02043 2.19823,-1.69235 91.0145,-52.40154 91.78039,-52.40154 0.52792,0 0.95986,24.10715 0.95986,53.57143 v 53.57143 l -4.64286,-0.21405 c -2.55357,-0.11772 -6.57143,-0.48075 -8.92857,-0.80673 z"
         id="path1054"
         transform="scale(0.26458333)" />
      <path
         style="opacity:1;fill:#ff3b3be0;fill-opacity:1;stroke:none;stroke-width:2.15972996;stroke-miterlimit:4;stroke-dasharray:none;stroke-opacity:1"
         d="m 528.67862,573.64992 c 0,-29.46428 0.40248,-53.57143 0.89439,-53.57143 1.30004,0 88.04675,50.08275 90.2402,52.0997 1.48899,1.36917 0.62942,3.34633 -4.41592,10.15734 -11.36727,15.34538 -27.18262,27.93921 -45.10878,35.92031 -8.1169,3.61381 -30.43193,8.91211 -37.68132,8.94674 l -3.92857,0.0188 z"
         id="path1056"
         transform="scale(0.26458333)" />
      <path
         style="opacity:1;fill:#ff3b3be0;fill-opacity:1;stroke:none;stroke-width:2.15972996;stroke-miterlimit:4;stroke-dasharray:none;stroke-opacity:1"
         d="m 576.25806,543.87477 c -24.50989,-14.26653 -44.88953,-26.28306 -45.2881,-26.70342 -0.39857,-0.42036 19.97639,-12.74826 45.2777,-27.39534 53.25861,-30.83171 47.58405,-30.0828 55.36457,-7.3068 4.49468,13.15732 4.79862,15.24757 4.84545,33.32357 0.0366,14.1432 -0.62296,21.7365 -2.47366,28.47676 -3.27717,11.93546 -9.54597,25.84516 -11.57192,25.67665 -0.87484,-0.0728 -21.64416,-11.8049 -46.15404,-26.07142 z"
         id="path1058"
         transform="scale(0.26458333)" />
    </g>
  </g>
</svg>
