<?xml version="1.0" encoding="UTF-8" standalone="no"?>
<svg
   xmlns:dc="http://purl.org/dc/elements/1.1/"
   xmlns:cc="http://creativecommons.org/ns#"
   xmlns:rdf="http://www.w3.org/1999/02/22-rdf-syntax-ns#"
   xmlns:svg="http://www.w3.org/2000/svg"
   xmlns="http://www.w3.org/2000/svg"
   id="svg1664"
   version="1.1"
   viewBox="0 0 58.964291 58.964291"
   height="58.964291mm"
   width="58.964291mm">
  <defs
     id="defs1658" />
  <metadata
     id="metadata1661">
    <rdf:RDF>
      <cc:Work
         rdf:about="">
        <dc:format>image/svg+xml</dc:format>
        <dc:type
           rdf:resource="http://purl.org/dc/dcmitype/StillImage" />
        <dc:title></dc:title>
      </cc:Work>
    </rdf:RDF>
  </metadata>
  <g
     transform="translate(-29.825809,-200.53816)"
     id="layer1">
    <g
       transform="translate(18.108544,-17.842784)"
       id="g1081">
      <path
         style="fill:none;stroke:none;stroke-width:0.26458332px;stroke-linecap:butt;stroke-linejoin:miter;stroke-opacity:1"
         d="m 70.681555,247.86309 a 29.482142,29.482142 0 0 1 -29.48215,29.48214 29.482142,29.482142 0 0 1 -29.48214,-29.48214 29.482142,29.482142 0 0 1 29.48214,-29.48215 29.482142,29.482142 0 0 1 29.48215,29.48215 z"
         id="path819-3-6-2-8" />
      <path
         style="opacity:1;fill:#ff3b3be0;fill-opacity:1;stroke:none;stroke-width:0.57142854;stroke-miterlimit:4;stroke-dasharray:none;stroke-opacity:1"
         d="m 28.954585,240.40782 c -6.54844,-3.79099 -12.11975,-7.03076 -12.38069,-7.19949 -1.00011,-0.64669 4.19529,-6.69009 8.00424,-9.31071 3.93845,-2.70972 8.9289,-4.49513 14.29833,-5.11544 l 2.17336,-0.25108 v 14.3903 c 0,7.91466 -0.0425,14.38778 -0.0945,14.38471 -0.052,-0.003 -5.4523,-3.1073 -12.00074,-6.89829 z"
         id="path923-7-7" />
      <path
         style="opacity:1;fill:#ff3b3be0;fill-opacity:1;stroke:none;stroke-width:0.57142854;stroke-miterlimit:4;stroke-dasharray:none;stroke-opacity:1"
         d="m 14.672445,259.8025 c -1.68548,-3.79932 -2.2323,-6.20578 -2.43033,-10.69542 -0.13652,-3.09498 -0.0265,-5.12286 0.38208,-7.04184 0.63992,-3.00562 2.81852,-8.5513 3.29128,-8.37803 1.35602,0.49701 24.45208,14.15193 24.25058,14.33749 -0.39411,0.36294 -23.22638,13.47973 -23.9197,13.7415 -0.45409,0.17145 -0.84066,-0.31086 -1.57391,-1.9637 z"
         id="path952-9" />
      <path
         style="opacity:1;fill:#ff3b3be0;fill-opacity:1;stroke:none;stroke-width:2.15972996;stroke-miterlimit:4;stroke-dasharray:none;stroke-opacity:1"
         d="m 140.82148,1046.2006 c -15.54763,-2.1502 -33.48705,-9.2207 -47.446139,-18.7001 -12.331894,-8.3745 -34.518802,-32.86783 -31.722683,-35.02047 2.19823,-1.69235 91.014502,-52.40154 91.780392,-52.40154 0.52792,0 0.95986,24.10715 0.95986,53.57143 v 53.57148 l -4.64286,-0.2141 c -2.55357,-0.1177 -6.57143,-0.4808 -8.92857,-0.8067 z"
         id="path1000"
         transform="scale(0.26458333)" />
    </g>
  </g>
</svg>
