<?xml version="1.0" encoding="UTF-8" standalone="no"?>
<svg
   xmlns:dc="http://purl.org/dc/elements/1.1/"
   xmlns:cc="http://creativecommons.org/ns#"
   xmlns:rdf="http://www.w3.org/1999/02/22-rdf-syntax-ns#"
   xmlns:svg="http://www.w3.org/2000/svg"
   xmlns="http://www.w3.org/2000/svg"
   id="svg1113"
   version="1.1"
   viewBox="0 0 58.964291 58.964291"
   height="58.964291mm"
   width="58.964291mm">
  <defs
     id="defs1107" />
  <metadata
     id="metadata1110">
    <rdf:RDF>
      <cc:Work
         rdf:about="">
        <dc:format>image/svg+xml</dc:format>
        <dc:type
           rdf:resource="http://purl.org/dc/dcmitype/StillImage" />
        <dc:title></dc:title>
      </cc:Work>
    </rdf:RDF>
  </metadata>
  <g
     transform="translate(-47.212708,-88.279225)"
     id="layer1">
    <g
       transform="translate(23.778185,-44.679095)"
       id="g1071">
      <path
         style="fill:none;stroke:none;stroke-width:0.26458332px;stroke-linecap:butt;stroke-linejoin:miter;stroke-opacity:1"
         d="M 82.398813,162.44047 A 29.482142,29.482142 0 0 1 52.916668,191.92261 29.482142,29.482142 0 0 1 23.434523,162.44047 29.482142,29.482142 0 0 1 52.916668,132.95832 29.482142,29.482142 0 0 1 82.398813,162.44047 Z"
         id="path819-3-6-2" />
      <path
         style="opacity:1;fill:#ff3b3be0;fill-opacity:1;stroke:none;stroke-width:0.57142854;stroke-miterlimit:4;stroke-dasharray:none;stroke-opacity:1"
         d="m 40.671849,154.9852 c -6.548438,-3.79099 -12.119748,-7.03076 -12.38069,-7.19949 -1.000107,-0.64669 4.195289,-6.69009 8.004241,-9.31071 3.938445,-2.70972 8.928897,-4.49513 14.298324,-5.11544 l 2.173365,-0.25108 v 14.3903 c 0,7.91466 -0.04252,14.38778 -0.09449,14.38471 -0.05197,-0.003 -5.452308,-3.1073 -12.000746,-6.89829 z"
         id="path923-7" />
      <path
         style="opacity:1;fill:#ff3b3be0;fill-opacity:1;stroke:none;stroke-width:2.15972996;stroke-miterlimit:4;stroke-dasharray:none;stroke-opacity:1"
         d="m 99.740643,659.07359 c -6.370317,-14.35967 -8.437045,-23.45494 -9.185515,-40.42367 -0.515965,-11.69754 -0.100106,-19.36196 1.444077,-26.61481 2.418588,-11.35984 10.652675,-32.31989 12.439475,-31.66499 5.12514,1.87846 92.41733,53.48759 91.65574,54.18895 -1.48952,1.37172 -87.78474,50.94698 -90.40514,51.93635 -1.71628,0.648 -3.17733,-1.17488 -5.948637,-7.42183 z"
         id="path952"
         transform="scale(0.26458333)" />
    </g>
  </g>
</svg>
