<?xml version="1.0" encoding="UTF-8" standalone="no"?>
<svg
   xmlns:dc="http://purl.org/dc/elements/1.1/"
   xmlns:cc="http://creativecommons.org/ns#"
   xmlns:rdf="http://www.w3.org/1999/02/22-rdf-syntax-ns#"
   xmlns:svg="http://www.w3.org/2000/svg"
   xmlns="http://www.w3.org/2000/svg"
   id="svg3317"
   version="1.1"
   viewBox="0 0 58.964291 58.964291"
   height="58.964291mm"
   width="58.964291mm">
  <defs
     id="defs3311" />
  <metadata
     id="metadata3314">
    <rdf:RDF>
      <cc:Work
         rdf:about="">
        <dc:format>image/svg+xml</dc:format>
        <dc:type
           rdf:resource="http://purl.org/dc/dcmitype/StillImage" />
        <dc:title></dc:title>
      </cc:Work>
    </rdf:RDF>
  </metadata>
  <g
     transform="translate(-89.958332,-114.05952)"
     id="layer1">
    <g
       transform="translate(-41.199408,-95.249978)"
       id="g1090">
      <path
         style="fill:none;stroke:none;stroke-width:0.26458332px;stroke-linecap:butt;stroke-linejoin:miter;stroke-opacity:1"
         d="m 190.12203,238.79165 a 29.482142,29.482142 0 0 1 -29.48215,29.48214 29.482142,29.482142 0 0 1 -29.48214,-29.48214 29.482142,29.482142 0 0 1 29.48214,-29.48215 29.482142,29.482142 0 0 1 29.48215,29.48215 z"
         id="path819-3-6-2-4" />
      <path
         style="opacity:1;fill:#ff3b3be0;fill-opacity:1;stroke:none;stroke-width:0.57142854;stroke-miterlimit:4;stroke-dasharray:none;stroke-opacity:1"
         d="m 148.39506,231.33638 c -6.54843,-3.79099 -12.11974,-7.03076 -12.38069,-7.19949 -1.0001,-0.64669 4.19529,-6.69009 8.00425,-9.31071 3.93844,-2.70972 8.92889,-4.49513 14.29832,-5.11544 l 2.17336,-0.25108 v 14.3903 c 0,7.91466 -0.0425,14.38778 -0.0945,14.38471 -0.052,-0.003 -5.4523,-3.1073 -12.00074,-6.89829 z"
         id="path923-7-78" />
      <path
         style="opacity:1;fill:#ff3b3be0;fill-opacity:1;stroke:none;stroke-width:0.57142854;stroke-miterlimit:4;stroke-dasharray:none;stroke-opacity:1"
         d="m 134.11293,250.73107 c -1.68548,-3.79933 -2.2323,-6.20579 -2.43034,-10.69543 -0.13651,-3.09497 -0.0265,-5.12285 0.38208,-7.04183 0.63992,-3.00563 2.81852,-8.55131 3.29128,-8.37803 1.35603,0.49701 24.45208,14.15192 24.25058,14.33749 -0.3941,0.36293 -23.22638,13.47972 -23.91969,13.74149 -0.4541,0.17145 -0.84067,-0.31085 -1.57391,-1.96369 z"
         id="path952-4" />
      <path
         style="opacity:1;fill:#ff3b3be0;fill-opacity:1;stroke:none;stroke-width:2.15972996;stroke-miterlimit:4;stroke-dasharray:none;stroke-opacity:1"
         d="m 592.25005,1011.9149 c -15.54763,-2.1502 -33.48705,-9.2207 -47.44614,-18.70015 -12.33189,-8.37443 -34.5188,-32.86779 -31.72268,-35.02044 2.19823,-1.69234 91.0145,-52.40153 91.78039,-52.40153 0.52792,0 0.95986,24.10714 0.95986,53.57143 v 53.57139 l -4.64286,-0.214 c -2.55357,-0.1177 -6.57143,-0.4808 -8.92857,-0.8067 z"
         id="path1060"
         transform="scale(0.26458333)" />
      <path
         style="opacity:1;fill:#ff3b3be0;fill-opacity:1;stroke:none;stroke-width:2.15972996;stroke-miterlimit:4;stroke-dasharray:none;stroke-opacity:1"
         d="m 608.67862,959.36421 c 0,-29.46429 0.40248,-53.57143 0.89439,-53.57143 1.30004,0 88.04675,50.08274 90.2402,52.09969 1.48909,1.36927 0.63477,3.34588 -4.39016,10.15735 -12.27143,16.63437 -31.84495,31.33311 -50.3296,37.79508 -9.12052,3.1883 -27.265,7.0907 -32.96907,7.0907 h -3.44576 z"
         id="path1062"
         transform="scale(0.26458333)" />
      <path
         style="opacity:1;fill:#ff3b3be0;fill-opacity:1;stroke:none;stroke-width:2.15972996;stroke-miterlimit:4;stroke-dasharray:none;stroke-opacity:1"
         d="m 656.25806,929.58905 c -24.50989,-14.26652 -44.88953,-26.28306 -45.2881,-26.70342 -0.39857,-0.42036 19.97639,-12.74826 45.2777,-27.39533 53.25861,-30.83171 47.58405,-30.08281 55.36457,-7.30681 4.5016,13.17759 4.79729,15.21973 4.82503,33.32357 0.0218,14.26047 -0.64088,21.70528 -2.54341,28.57143 -3.36476,12.1433 -9.47138,25.7492 -11.48175,25.58199 -0.87484,-0.0728 -21.64416,-11.80491 -46.15404,-26.07143 z"
         id="path1064"
         transform="scale(0.26458333)" />
      <path
         style="opacity:1;fill:#ff3b3be0;fill-opacity:1;stroke:none;stroke-width:2.15972996;stroke-miterlimit:4;stroke-dasharray:none;stroke-opacity:1"
         d="m 608.67862,846.55269 v -53.61705 h 6.91434 c 17.68666,0 45.18048,11.01343 61.77816,24.74699 7.82926,6.47824 24.10254,25.4562 24.15091,28.16489 0.0106,0.59543 -73.06239,43.44598 -89.51269,52.49088 l -3.33072,1.83134 z"
         id="path1066"
         transform="scale(0.26458333)" />
    </g>
  </g>
</svg>
