<?xml version="1.0" encoding="UTF-8" standalone="no"?>
<svg
   xmlns:dc="http://purl.org/dc/elements/1.1/"
   xmlns:cc="http://creativecommons.org/ns#"
   xmlns:rdf="http://www.w3.org/1999/02/22-rdf-syntax-ns#"
   xmlns:svg="http://www.w3.org/2000/svg"
   xmlns="http://www.w3.org/2000/svg"
   id="svg8"
   version="1.1"
   viewBox="0 0 58.964291 58.964287"
   height="58.964287mm"
   width="58.964291mm">
  <defs
     id="defs2" />
  <metadata
     id="metadata5">
    <rdf:RDF>
      <cc:Work
         rdf:about="">
        <dc:format>image/svg+xml</dc:format>
        <dc:type
           rdf:resource="http://purl.org/dc/dcmitype/StillImage" />
        <dc:title></dc:title>
      </cc:Work>
    </rdf:RDF>
  </metadata>
  <g
     transform="translate(-23.234486,-30.81026)"
     id="layer1">
    <g
       id="g1075">
      <path
         style="fill:none;stroke:none;stroke-width:0.26458332px;stroke-linecap:butt;stroke-linejoin:miter;stroke-opacity:1"
         d="M 82.198776,60.292406 A 29.482143,29.482143 0 0 1 52.71663,89.774546 29.482143,29.482143 0 0 1 23.234486,60.292406 29.482143,29.482143 0 0 1 52.71663,30.81026 29.482143,29.482143 0 0 1 82.198776,60.292406 Z"
         id="path819-3-6" />
      <path
         style="opacity:1;fill:#ff3b3be0;fill-opacity:1;stroke:none;stroke-width:2.15972996;stroke-miterlimit:4;stroke-dasharray:none;stroke-opacity:1"
         d="m 152.96433,199.6994 c -24.75,-14.32815 -45.80692,-26.57295 -46.79316,-27.21067 -3.77993,-2.44417 15.85621,-25.28535 30.25225,-35.19009 14.88546,-10.24146 33.74701,-16.98946 54.04091,-19.33392 l 8.21429,-0.94896 v 54.38851 c 0,29.91368 -0.16071,54.37901 -0.35714,54.36741 -0.19643,-0.0116 -20.60715,-11.74413 -45.35715,-26.07228 z"
         id="path923"
         transform="scale(0.26458333)" />
    </g>
  </g>
</svg>
